# xmcd
#
# Track frame offsets:
# 150
# 14931
# 40062
# 63389
# 93884
# 127026
#
# Disc length: 1995 seconds
#
# Revision: 1
# Processed by: cddbd v1.5.2PL0 Copyright (c) Steve Scherf et al.
# Submitted via: CedeCatalogueitor 2.6.0.6 http://personales.ya.com/cdcatalogueitor
#
DISCID=4e07c906
DTITLE=Stereo Mcs - Black Gold
DYEAR=1900
DGENRE=
TTITLE0=Black Gold
TTITLE1=Black Gold  - Marlow Rmx
TTITLE2=Black Gold - Dj Beware Mix
TTITLE3=Black Gold - Tic Toc Rmx
TTITLE4=Black Gold - Fedde Le Grand Rmx
TTITLE5=Black Gold - Proper Villains Mix
EXTD=
EXTT0=
EXTT1=
EXTT2=
EXTT3=
EXTT4=
EXTT5=
PLAYORDER=
